<svg width="114" height="47" viewBox="0 0 114 47" fill="none" xmlns="http://www.w3.org/2000/svg">
<path d="M0 43.1958L0 5.15405L11.7335 5.15405V10.5535C23.467 8.22193 23.5905 3.1906 38.5352 0.245428C41.7465 0.122714 45.0813 0 48.5395 0C64.4724 0 83.74 1.71802 107.454 4.7859C111.777 5.27676 114 7.60835 114 9.81723C114 12.3943 110.912 15.5849 103.625 15.5849L82.0108 15.953C85.7161 17.9165 87.3218 20.0026 87.3218 21.9661C87.3218 24.6658 84.7281 26.8747 81.8873 28.3473C82.1343 29.329 82.3814 30.188 82.3814 31.047C82.3814 35.2193 79.0466 38.0418 72.8711 38.9008C72.5005 43.564 69.0423 46.6319 63.2373 46.6319C61.0141 46.6319 58.4204 46.141 55.5796 45.1593C50.5157 46.5091 46.1928 47 42.364 47C30.6306 47 23.5905 42.2141 16.0563 40.1279L11.7335 39.8825V43.1958H0ZM11.7335 11.9034L11.7335 38.2872C21.4908 38.1645 28.1603 45.4047 43.1051 45.4047C46.0693 45.4047 49.2806 45.0366 52.9859 44.423C46.1928 40.4961 43.3521 36.4465 43.3521 33.5013C43.3521 31.5379 44.7107 30.0653 47.0574 29.6971C45.8223 28.3473 45.0813 26.9974 45.0813 25.6475C45.0813 23.8068 46.5634 22.2115 50.2687 21.4752C50.1452 19.8799 49.5276 19.1436 47.4279 19.1436H46.9339C43.2286 19.6345 43.9697 20.6162 43.3521 21.8433C39.5233 29.4517 33.3478 32.1514 27.2958 33.9922L26.8017 33.3786C31.1246 31.7833 39.5233 27.4883 42.364 19.7572C41.3759 19.2663 41.0054 18.6527 41.0054 18.2846C41.0054 18.0392 41.3759 17.7937 41.9935 17.7937C42.364 17.7937 42.8581 17.9165 43.3521 18.0392C44.2167 18.0392 44.9577 18.1619 45.6988 18.1619C48.0455 18.1619 50.3922 17.9165 54.221 17.7937C58.9144 17.9165 63.7313 24.7885 70.2774 25.6475C71.0184 25.893 71.636 25.893 72.2535 25.893C74.8472 25.893 76.4529 24.4204 76.4529 22.7024C76.4529 21.9661 76.0823 21.2298 75.3413 20.6162L59.2849 8.95823C54.9621 6.3812 48.169 6.25849 37.4236 5.76762L36.8061 4.66318C52.3684 5.03133 56.5677 5.03133 63.1138 9.44909L69.4128 14.235L102.514 14.235C106.219 14.1123 111.9 13.7441 111.9 9.32637C111.9 8.09922 111.159 7.1175 108.813 6.25849C103.625 5.64491 68.0542 1.34987 46.1928 1.34987C25.9372 1.34987 26.1842 10.0627 11.7335 11.9034ZM46.9339 25.4021C46.9339 28.8381 57.1853 38.0418 68.5482 38.0418C73.3651 38.0418 80.1582 36.201 80.5287 32.1514C80.5287 30.5561 80.2817 30.0653 79.6641 30.0653C78.5525 30.0653 76.5764 31.5379 73.3651 31.906C72.624 31.906 72.0065 32.0287 71.2654 32.0287C63.2373 32.0287 56.4442 28.2245 51.8743 23.6841C51.3803 23.1932 50.7627 22.9478 50.1452 22.9478C48.5395 22.9478 46.9339 24.1749 46.9339 25.4021ZM77.3174 15.5849H73.4886C72.7476 15.5849 72.377 15.7076 72.377 15.953C72.377 16.6893 75.2178 18.2846 76.3294 19.2663C77.5645 20.4935 78.182 21.7206 78.182 22.8251C78.182 25.4021 75.5883 27.3655 72.2535 27.3655C67.1896 27.3655 62.4962 24.1749 56.4442 20.0026C55.4561 19.5118 54.5915 19.2663 53.8505 19.2663C52.7389 19.2663 51.9978 19.8799 51.9978 20.7389C51.9978 23.3159 61.7551 30.4334 71.3889 30.4334C75.0943 30.4334 78.429 29.4517 80.7757 27.4883C84.1105 25.6475 85.4691 23.6841 85.4691 21.9661C85.4691 18.6527 80.8992 16.0757 77.3174 15.5849ZM61.1376 45.0366C61.5081 45.0366 62.9902 45.1593 63.3608 45.1593C67.8072 45.1593 70.8949 42.2141 70.8949 40.987C70.8949 39.3917 69.5363 39.3917 67.5601 39.3917C61.1376 39.1462 53.974 35.7102 49.5276 31.906C49.0336 31.4152 48.2925 31.2924 47.675 31.2924C46.3164 31.2924 44.9577 32.2742 44.9577 33.624C44.9577 36.4465 50.2687 43.6867 61.1376 45.0366ZM9.88082 41.7232L9.88082 6.74935L1.97616 6.74935L1.97616 41.7232H9.88082Z" fill="black"/>
</svg>
