<svg width="114" height="47" viewBox="0 0 114 47" fill="none" xmlns="http://www.w3.org/2000/svg">
<path d="M114 43.1958V5.15405L102.267 5.15405V10.5535C90.533 8.22193 90.4095 3.1906 75.4648 0.245428C72.2535 0.122714 68.9187 0 65.4605 0C49.5276 0 30.26 1.71802 6.54605 4.7859C2.22319 5.27676 0 7.60835 0 9.81723C0 12.3943 3.08776 15.5849 10.3749 15.5849L31.9892 15.953C28.2839 17.9165 26.6782 20.0026 26.6782 21.9661C26.6782 24.6658 29.2719 26.8747 32.1127 28.3473C31.8657 29.329 31.6186 30.188 31.6186 31.047C31.6186 35.2193 34.9534 38.0418 41.1289 38.9008C41.4995 43.564 44.9577 46.6319 50.7627 46.6319C52.9859 46.6319 55.5796 46.141 58.4204 45.1593C63.4843 46.5091 67.8072 47 71.636 47C83.3694 47 90.4095 42.2141 97.9437 40.1279L102.267 39.8825V43.1958H114ZM102.267 11.9034V38.2872C92.5092 38.1645 85.8397 45.4047 70.8949 45.4047C67.9307 45.4047 64.7194 45.0366 61.0141 44.423C67.8072 40.4961 70.6479 36.4465 70.6479 33.5013C70.6479 31.5379 69.2893 30.0653 66.9426 29.6971C68.1777 28.3473 68.9187 26.9974 68.9187 25.6475C68.9187 23.8068 67.4366 22.2115 63.7313 21.4752C63.8548 19.8799 64.4724 19.1436 66.5721 19.1436H67.0661C70.7714 19.6345 70.0303 20.6162 70.6479 21.8433C74.4767 29.4517 80.6522 32.1514 86.7042 33.9922L87.1983 33.3786C82.8754 31.7833 74.4767 27.4883 71.636 19.7572C72.6241 19.2663 72.9946 18.6527 72.9946 18.2846C72.9946 18.0392 72.6241 17.7937 72.0065 17.7937C71.636 17.7937 71.1419 17.9165 70.6479 18.0392C69.7833 18.0392 69.0423 18.1619 68.3012 18.1619C65.9545 18.1619 63.6078 17.9165 59.779 17.7937C55.0856 17.9165 50.2687 24.7885 43.7226 25.6475C42.9816 25.893 42.364 25.893 41.7465 25.893C39.1528 25.893 37.5471 24.4204 37.5471 22.7024C37.5471 21.9661 37.9177 21.2298 38.6587 20.6162L54.7151 8.95823C59.0379 6.3812 65.831 6.25849 76.5764 5.76762L77.1939 4.66318C61.6316 5.03133 57.4323 5.03133 50.8862 9.44909L44.5872 14.235L11.4865 14.235C7.78115 14.1123 2.09968 13.7441 2.09968 9.32637C2.09968 8.09922 2.84074 7.1175 5.18743 6.25849C10.3749 5.64491 45.9458 1.34987 67.8072 1.34987C88.0628 1.34987 87.8158 10.0627 102.267 11.9034ZM67.0661 25.4021C67.0661 28.8381 56.8147 38.0418 45.4518 38.0418C40.6349 38.0418 33.8418 36.201 33.4713 32.1514C33.4713 30.5561 33.7183 30.0653 34.3359 30.0653C35.4475 30.0653 37.4236 31.5379 40.6349 31.906C41.376 31.906 41.9935 32.0287 42.7346 32.0287C50.7627 32.0287 57.5558 28.2245 62.1257 23.6841C62.6197 23.1932 63.2373 22.9478 63.8548 22.9478C65.4605 22.9478 67.0661 24.1749 67.0661 25.4021ZM36.6826 15.5849H40.5114C41.2524 15.5849 41.623 15.7076 41.623 15.953C41.623 16.6893 38.7822 18.2846 37.6706 19.2663C36.4355 20.4935 35.818 21.7206 35.818 22.8251C35.818 25.4021 38.4117 27.3655 41.7465 27.3655C46.8104 27.3655 51.5038 24.1749 57.5558 20.0026C58.5439 19.5118 59.4085 19.2663 60.1495 19.2663C61.2611 19.2663 62.0022 19.8799 62.0022 20.7389C62.0022 23.3159 52.2449 30.4334 42.6111 30.4334C38.9057 30.4334 35.571 29.4517 33.2243 27.4883C29.8895 25.6475 28.5309 23.6841 28.5309 21.9661C28.5309 18.6527 33.1008 16.0757 36.6826 15.5849ZM52.8624 45.0366C52.4919 45.0366 51.0098 45.1593 50.6392 45.1593C46.1928 45.1593 43.1051 42.2141 43.1051 40.987C43.1051 39.3917 44.4637 39.3917 46.4399 39.3917C52.8624 39.1462 60.026 35.7102 64.4724 31.906C64.9664 31.4152 65.7075 31.2924 66.325 31.2924C67.6836 31.2924 69.0423 32.2742 69.0423 33.624C69.0423 36.4465 63.7313 43.6867 52.8624 45.0366ZM104.119 41.7232V6.74935L112.024 6.74935V41.7232H104.119Z" fill="black"/>
</svg>
