<svg width="174" height="337" viewBox="0 0 174 337" fill="none" xmlns="http://www.w3.org/2000/svg">
<path d="M131.632 266.198C122.33 243.375 84.316 258.87 71.9151 228.447L1.29113 44.3169C-3.36469 32.8948 8.03291 28.249 12.6887 39.671L74.7022 191.808C80.9071 207.03 96.1253 200.827 89.9205 185.605L27.907 33.4678C23.2512 22.0458 34.6703 17.3911 39.3261 28.8132L105.995 192.372C112.191 207.573 127.388 201.378 121.192 186.177L54.5229 22.6187C49.8671 11.1967 61.2861 6.54208 65.9419 17.9641L127.955 170.101C134.16 185.323 149.357 179.129 143.152 163.906L81.1387 11.7697C76.4829 0.347603 87.902 -4.30701 92.5578 7.11504L170.78 188.148C183.181 218.571 145.146 234.074 154.449 256.897L164.675 280.5C163.296 298.421 160.135 334.711 158.524 336.5L131.632 266.198Z" fill="#C0C0C0" fill-opacity="0.58"/>
</svg>
