<svg width="323" height="643" viewBox="0 0 323 643" fill="none" xmlns="http://www.w3.org/2000/svg">
<g filter="url(#filter0_d_52_230)">
<path fill-rule="evenodd" clip-rule="evenodd" d="M315.205 601.642C327.905 631.952 290.022 647.825 277.323 617.515L138.852 265.808C129.328 243.077 91.4668 258.941 78.7705 228.64L6.359 45.2053C1.59232 33.8291 12.9442 29.0726 17.7109 40.4488L81.2012 191.975C87.5538 207.137 102.711 200.786 96.3584 185.624L32.8681 34.0979C28.1014 22.7217 39.4747 17.9562 44.2414 29.3324L112.498 192.235C118.842 207.375 133.978 201.033 127.634 185.893L59.3772 22.9904C54.6105 11.6142 65.9838 6.84879 70.7504 18.225L134.241 169.751C140.593 184.913 155.729 178.571 149.377 163.41L85.8863 11.883C81.1196 0.506808 92.4929 -4.25865 97.2596 7.11756L177.239 187.381C189.935 217.682 152.053 233.555 161.577 256.286L315.205 601.642Z" fill="#C0C0C0"/>
<path fill-rule="evenodd" clip-rule="evenodd" d="M315.205 601.642C327.905 631.952 290.022 647.825 277.323 617.515L138.852 265.808C129.328 243.077 91.4668 258.941 78.7705 228.64L6.359 45.2053C1.59232 33.8291 12.9442 29.0726 17.7109 40.4488L81.2012 191.975C87.5538 207.137 102.711 200.786 96.3584 185.624L32.8681 34.0979C28.1014 22.7217 39.4747 17.9562 44.2414 29.3324L112.498 192.235C118.842 207.375 133.978 201.033 127.634 185.893L59.3772 22.9904C54.6105 11.6142 65.9838 6.84879 70.7504 18.225L134.241 169.751C140.593 184.913 155.729 178.571 149.377 163.41L85.8863 11.883C81.1196 0.506808 92.4929 -4.25865 97.2596 7.11756L177.239 187.381C189.935 217.682 152.053 233.555 161.577 256.286L315.205 601.642Z" stroke="black"/>
</g>
<defs>
<filter id="filter0_d_52_230" x="0.717041" y="0.0996094" width="321.556" height="642.205" filterUnits="userSpaceOnUse" color-interpolation-filters="sRGB">
<feFlood flood-opacity="0" result="BackgroundImageFix"/>
<feColorMatrix in="SourceAlpha" type="matrix" values="0 0 0 0 0 0 0 0 0 0 0 0 0 0 0 0 0 0 127 0" result="hardAlpha"/>
<feOffset dy="4"/>
<feGaussianBlur stdDeviation="2"/>
<feComposite in2="hardAlpha" operator="out"/>
<feColorMatrix type="matrix" values="0 0 0 0 0 0 0 0 0 0 0 0 0 0 0 0 0 0 0.25 0"/>
<feBlend mode="normal" in2="BackgroundImageFix" result="effect1_dropShadow_52_230"/>
<feBlend mode="normal" in="SourceGraphic" in2="effect1_dropShadow_52_230" result="shape"/>
</filter>
</defs>
</svg>
