<svg width="375" height="607" viewBox="0 0 375 607" fill="none" xmlns="http://www.w3.org/2000/svg">
<path fill-rule="evenodd" clip-rule="evenodd" d="M370.193 573.058C386.146 601.788 350.237 621.727 334.284 592.997L158.008 258.633C146.043 237.086 110.155 257.014 94.2059 228.292L2.07776 53.9243C-3.91004 43.1407 6.85048 37.1657 12.8383 47.9493L92.5933 191.582C100.573 205.954 114.941 197.976 106.961 183.604L27.2059 39.9714C21.2181 29.1878 31.9989 23.2016 37.9867 33.9852L123.73 188.402C131.698 202.753 146.046 194.786 138.077 180.435L52.3341 26.0185C46.3463 15.2349 57.127 9.2487 63.1148 20.0323L142.87 163.665C150.85 178.037 165.197 170.07 157.217 155.699L77.4622 12.0656C71.4744 1.28205 82.2552 -4.70421 88.243 6.07937L187.545 176.463C203.494 205.186 167.585 225.125 179.549 246.672L370.193 573.058Z" fill="#C0C0C0" fill-opacity="0.58"/>
</svg>
